<svg
  aria-hidden="true"
  style="position: absolute; width: 0; height: 0; overflow: hidden"
  version="1.1"
  xmlns="http://www.w3.org/2000/svg"
  xmlns:xlink="http://www.w3.org/1999/xlink"
>
  <defs>
    <symbol id="icon-search-input" viewBox="0 0 32 32">
      <path
        stroke-linejoin="miter"
        stroke-linecap="butt"
        stroke-miterlimit="4"
        stroke-width="1.3333"
        d="M29.017 29.018c0.202-0.203 0.316-0.478 0.316-0.765s-0.114-0.561-0.316-0.765l-7.788-7.785c1.516-1.86 2.342-4.187 2.338-6.587-0.003-2.771-1.105-5.427-3.064-7.386s-4.615-3.061-7.386-3.064c-2.771 0.003-5.427 1.105-7.386 3.064s-3.061 4.615-3.064 7.386c0.003 2.771 1.105 5.427 3.064 7.386s4.615 3.061 7.386 3.064c2.399 0.004 4.726-0.822 6.587-2.338l7.788 7.788c0.202 0.202 0.476 0.315 0.762 0.315 0.142 0 0.282-0.027 0.414-0.082s0.25-0.134 0.351-0.234zM21.406 13.117c-0.002 2.197-0.876 4.304-2.43 5.857s-3.66 2.428-5.857 2.43c-2.197-0.002-4.304-0.876-5.858-2.429s-2.428-3.66-2.43-5.858c0.002-2.197 0.876-4.304 2.43-5.857s3.66-2.428 5.857-2.43c2.197 0.002 4.304 0.876 5.858 2.429s2.428 3.66 2.43 5.858z"
      ></path>
    </symbol>
  </defs>
</svg>
